<?xml version="1.0" encoding="UTF-8" standalone="no"?>
<svg
   xmlns:dc="http://purl.org/dc/elements/1.1/"
   xmlns:cc="http://creativecommons.org/ns#"
   xmlns:rdf="http://www.w3.org/1999/02/22-rdf-syntax-ns#"
   xmlns:svg="http://www.w3.org/2000/svg"
   xmlns="http://www.w3.org/2000/svg"
   viewBox="0 0 3266.6667 3266.6667"
   height="3266.6667"
   width="3266.6667"
   xml:space="preserve"
   id="svg2"
   version="1.1"><metadata
     id="metadata8"><rdf:RDF><cc:Work
         rdf:about=""><dc:format>image/svg+xml</dc:format><dc:type
           rdf:resource="http://purl.org/dc/dcmitype/StillImage" /></cc:Work></rdf:RDF></metadata><defs
     id="defs6" /><g
     transform="matrix(1.3333333,0,0,-1.3333333,0,3266.6667)"
     id="g10"><g
       transform="scale(0.1)"
       id="g12"><path
         id="path14"
         style="fill:#381999;fill-opacity:1;fill-rule:nonzero;stroke:none"
         d="m 7358.38,3510 h -391.15 v -362.7 h 435.92 v -109 h -565.81 v 1006.2 h 543.42 v -109 h -413.53 v -318 h 391.15 V 3510" /><path
         id="path16"
         style="fill:#381999;fill-opacity:1;fill-rule:nonzero;stroke:none"
         d="m 7701.76,3141.3 c 32.83,-6 80.6,-7.5 131.37,-7.5 277.67,0 428.46,155.3 428.46,427 1.5,237.4 -132.87,388.2 -407.58,388.2 -67.17,0 -117.93,-6 -152.25,-13.5 z m -129.88,889.8 c 79.11,11.9 173.16,20.9 276.18,20.9 186.61,0 319.47,-43.3 407.56,-125.4 89.58,-82.2 141.83,-198.6 141.83,-361.3 0,-164.2 -50.77,-298.6 -144.81,-391.2 -94.07,-94 -249.32,-144.8 -444.9,-144.8 -92.55,0 -170.18,4.5 -235.86,12 v 989.8" /><path
         id="path18"
         style="fill:#381999;fill-opacity:1;fill-rule:nonzero;stroke:none"
         d="M 8696.04,4044.5 V 3038.3 h -129.88 v 1006.2 h 129.88" /><path
         id="path20"
         style="fill:#381999;fill-opacity:1;fill-rule:nonzero;stroke:none"
         d="m 9114.06,3934 h -306.04 v 110.5 h 744.95 V 3934 H 9245.44 V 3038.3 H 9114.06 V 3934" /><path
         id="path22"
         style="fill:#381999;fill-opacity:1;fill-rule:nonzero;stroke:none"
         d="m 10045.7,3456.3 -98.57,289.6 c -22.39,65.7 -37.34,125.4 -52.27,183.7 h -2.97 c -14.92,-59.8 -31.35,-121 -50.77,-182.2 l -98.51,-291.1 z m -329.98,-101.5 -104.49,-316.5 h -134.36 l 341.86,1006.2 h 156.76 L 10318.9,3038.3 H 10180 l -107.5,316.5 h -356.78" /><path
         id="path24"
         style="fill:#381999;fill-opacity:1;fill-rule:nonzero;stroke:none"
         d="m 10596.6,3136.8 c 25.4,-4.5 62.7,-6 109,-6 134.3,0 258.2,49.3 258.2,195.6 0,137.3 -117.9,194.1 -259.7,194.1 h -107.5 z m 0,482.2 h 117.9 c 137.4,0 218,71.7 218,168.7 0,118 -89.6,164.2 -221,164.2 -59.7,0 -94,-4.4 -114.9,-8.9 z m -129.9,412.1 c 56.7,11.9 146.3,20.9 237.4,20.9 129.8,0 213.4,-22.4 276.1,-73.2 52.3,-38.8 83.7,-98.5 83.7,-177.6 0,-97.1 -64.2,-182.2 -170.2,-221 v -3 c 95.5,-23.9 207.5,-103 207.5,-252.3 0,-86.6 -34.4,-152.3 -85.1,-201.5 -70.2,-64.2 -183.6,-94.1 -347.9,-94.1 -89.5,0 -158.2,6 -201.5,12 v 989.8" /><path
         id="path26"
         style="fill:#381999;fill-opacity:1;fill-rule:nonzero;stroke:none"
         d="m 11275.9,4044.5 h 129.9 v -897.2 h 429.9 v -109 h -559.8 v 1006.2" /><path
         id="path28"
         style="fill:#381999;fill-opacity:1;fill-rule:nonzero;stroke:none"
         d="m 12501.6,3510 h -391.2 v -362.7 h 435.9 v -109 h -565.8 v 1006.2 h 543.4 v -109 h -413.5 v -318 h 391.2 V 3510" /><path
         id="path30"
         style="fill:#381999;fill-opacity:1;fill-rule:nonzero;stroke:none"
         d="m 13013.6,3196.5 c 58.2,-35.8 143.3,-65.7 232.9,-65.7 132.9,0 210.5,70.2 210.5,171.7 0,94.1 -53.7,147.8 -189.6,200.1 -164.2,58.2 -265.7,143.3 -265.7,285.1 0,156.8 129.9,273.2 325.4,273.2 103,0 177.7,-23.9 222.5,-49.2 l -35.9,-106 c -32.8,17.9 -100,47.7 -191.1,47.7 -137.3,0 -189.5,-82.1 -189.5,-150.7 0,-94.1 61.2,-140.4 200,-194.1 170.2,-65.7 256.8,-147.8 256.8,-295.6 0,-155.3 -115,-289.7 -352.4,-289.7 -97,0 -203,28.4 -256.7,64.2 l 32.8,109" /><path
         id="path32"
         style="fill:#381999;fill-opacity:1;fill-rule:nonzero;stroke:none"
         d="m 13958.6,3934 h -306 v 110.5 h 745 V 3934 H 14090 v -895.7 h -131.4 V 3934" /><path
         id="path34"
         style="fill:#381999;fill-opacity:1;fill-rule:nonzero;stroke:none"
         d="m 14639.4,3572.7 h 132.9 c 138.8,0 226.9,76.2 226.9,191.1 0,129.9 -94,186.6 -231.4,188.1 -62.7,0 -107.5,-5.9 -128.4,-11.9 z m -129.9,458.4 c 65.7,13.4 159.8,20.9 249.4,20.9 138.8,0 228.4,-25.4 291.1,-82.1 50.7,-44.8 79.1,-113.5 79.1,-191.1 0,-132.9 -83.6,-221 -189.6,-256.8 v -4.5 c 77.6,-26.9 123.9,-98.5 147.8,-203 32.9,-140.4 56.8,-237.4 77.6,-276.2 h -134.3 c -16.4,28.4 -38.8,114.9 -67.2,240.3 -29.9,138.9 -83.6,191.1 -201.5,195.6 h -122.5 v -435.9 h -129.9 v 992.8" /><path
         id="path36"
         style="fill:#381999;fill-opacity:1;fill-rule:nonzero;stroke:none"
         d="m 15396.4,3535.4 c 0,-215 116.4,-407.5 320.9,-407.5 206,0 322.5,189.6 322.5,418 0,200 -104.5,409 -321,409 -215,0 -322.4,-198.5 -322.4,-419.5 z m 780.7,16.4 c 0,-346.3 -210.4,-529.9 -467.2,-529.9 -265.8,0 -452.4,206 -452.4,510.5 0,319.5 198.6,528.5 467.3,528.5 274.7,0 452.3,-210.5 452.3,-509.1" /><g
         transform="scale(1.04641)"
         id="g38"><path
           id="path40"
           style="fill:#381999;fill-opacity:1;fill-rule:nonzero;stroke:none"
           d="m 15620.8,3865.12 h 124.2 v -463.68 h 4.3 c 25.7,37.08 51.4,71.38 75.6,102.73 l 293.9,360.95 h 154.1 l -348.2,-408.07 375.3,-553.51 h -147 l -316.7,472.19 -91.3,-105.5 v -366.69 h -124.2 v 961.58" /></g><g
         transform="scale(1.08717)"
         id="g42"><path
           id="path44"
           style="fill:#381999;fill-opacity:1;fill-rule:nonzero;stroke:none"
           d="m 16258.9,3228.58 h -359.8 V 2894.96 H 16300 V 2794.7 h -520.4 v 925.52 h 499.8 v -100.26 h -380.3 v -292.5 h 359.8 v -98.88" /></g><g
         transform="scale(1.199)"
         id="g46"><path
           id="path48"
           style="fill:#381999;fill-opacity:1;fill-rule:nonzero;stroke:none"
           d="M 16250.4,4087.82 H 4177.53 c -27.39,0 -49.61,22.19 -49.61,49.63 0,27.36 22.22,49.62 49.61,49.62 H 16250.4 c 27.4,0 49.6,-22.26 49.6,-49.62 0,-27.44 -22.2,-49.63 -49.6,-49.63" /></g><path
         id="path50"
         style="fill:#381999;fill-opacity:1;fill-rule:nonzero;stroke:none"
         d="m 4511.89,4742 h 437.48 v 437.5 h -437.48 z m 496.97,-118.9 h -556.45 c -32.85,0 -59.48,26.6 -59.48,59.4 V 5239 c 0,32.8 26.63,59.5 59.48,59.5 h 556.45 c 32.85,0 59.48,-26.7 59.48,-59.5 v -556.5 c 0,-32.8 -26.63,-59.4 -59.48,-59.4" /><g
         transform="scale(1.23356)"
         id="g52"><path
           id="path54"
           style="fill:#381999;fill-opacity:1;fill-rule:nonzero;stroke:none"
           d="m 15848.9,3844.14 h 354.6 v 354.67 h -354.6 z m 402.9,-96.38 h -451.2 c -26.6,0 -48.1,21.56 -48.1,48.15 v 451.13 c 0,26.59 21.5,48.24 48.1,48.24 h 451.2 c 26.6,0 48.2,-21.65 48.2,-48.24 v -451.13 c 0,-26.59 -21.6,-48.15 -48.2,-48.15" /></g><path
         id="path56"
         style="fill:#381999;fill-opacity:1;fill-rule:nonzero;stroke:none"
         d="m 8165.93,6957.6 h -356.4 v -230 h 398.08 V 6548 h -617.96 v 968.6 h 597.84 V 7337 h -377.96 v -201.2 h 356.4 v -178.2" /><path
         id="path58"
         style="fill:#381999;fill-opacity:1;fill-rule:nonzero;stroke:none"
         d="m 8806.88,6953.3 c 0,11.5 -1.43,27.3 -2.87,38.8 -12.94,58.9 -60.36,107.7 -127.91,107.7 -99.16,0 -150.89,-89.1 -150.89,-199.7 0,-119.3 58.92,-194 149.46,-194 63.23,0 113.53,43.1 126.46,104.9 4.32,15.8 5.75,31.6 5.75,50.3 z m 218.44,615 v -810.5 c 0,-79 2.88,-162.4 5.75,-209.8 H 8837.06 L 8827,6651.5 h -2.87 c -44.55,-79.1 -129.34,-119.3 -219.88,-119.3 -166.7,0 -300.35,142.3 -300.35,360.7 -1.44,237.1 146.58,373.6 314.72,373.6 86.23,0 153.77,-30.1 185.39,-79 h 2.87 v 380.8 h 218.44" /><path
         id="path60"
         style="fill:#381999;fill-opacity:1;fill-rule:nonzero;stroke:none"
         d="m 9200.64,6548 v 702.7 h 218.45 V 6548 Z m 225.63,898.2 c 0,-60.4 -45.99,-109.2 -117.84,-109.2 -68.99,0 -114.97,48.8 -113.54,109.2 -1.43,63.2 44.55,110.6 114.97,110.6 70.42,0 114.97,-47.4 116.41,-110.6" /><path
         id="path62"
         style="fill:#381999;fill-opacity:1;fill-rule:nonzero;stroke:none"
         d="m 9838.7,7451.9 v -201.2 h 156.65 V 7089.8 H 9838.7 v -254.4 c 0,-84.8 20.13,-123.6 86.23,-123.6 27.31,0 48.86,2.9 64.67,5.8 l 1.44,-165.3 c -28.75,-11.5 -80.48,-18.7 -142.28,-18.7 -70.41,0 -129.34,24.4 -163.83,60.4 -40.23,41.7 -60.36,109.2 -60.36,208.4 v 287.4 h -93.41 v 160.9 h 93.41 v 152.4 l 214.13,48.8" /><path
         id="path64"
         style="fill:#381999;fill-opacity:1;fill-rule:nonzero;stroke:none"
         d="m 10656.4,7451.9 v -201.2 h 156.6 v -160.9 h -156.6 v -254.4 c 0,-84.8 20.1,-123.6 86.2,-123.6 27.3,0 48.9,2.9 64.7,5.8 l 1.4,-165.3 c -28.7,-11.5 -80.4,-18.7 -142.2,-18.7 -70.5,0 -129.4,24.4 -163.9,60.4 -40.2,41.7 -60.3,109.2 -60.3,208.4 v 287.4 h -93.4 v 160.9 h 93.4 v 152.4 l 214.1,48.8" /><path
         id="path66"
         style="fill:#381999;fill-opacity:1;fill-rule:nonzero;stroke:none"
         d="m 10939.5,7568.3 h 218.4 v -400.9 h 2.9 c 23,30.2 51.7,53.2 86.2,71.8 31.7,17.3 73.3,27.3 113.6,27.3 139.4,0 245.7,-96.2 245.7,-307.5 v -411 h -218.4 v 386.6 c 0,91.9 -31.6,155.2 -113.6,155.2 -57.4,0 -93.4,-37.4 -109.2,-76.2 -5.7,-14.4 -7.2,-33 -7.2,-48.8 V 6548 h -218.4 v 1020.3" /><path
         id="path68"
         style="fill:#381999;fill-opacity:1;fill-rule:nonzero;stroke:none"
         d="m 12207,6979.1 c 0,53.2 -23,142.3 -123.6,142.3 -91.9,0 -129.3,-83.4 -135.1,-142.3 z m -257.2,-149.4 c 7.2,-90.6 96.3,-133.7 198.3,-133.7 74.7,0 135.1,10.1 194,28.8 l 28.8,-148.1 c -71.9,-28.7 -159.6,-43.1 -254.4,-43.1 -238.6,0 -375.1,138 -375.1,357.9 0,178.2 110.7,375 355,375 227,0 313.3,-176.7 313.3,-350.6 0,-37.4 -4.3,-70.4 -7.2,-86.2 h -452.7" /><path
         id="path70"
         style="fill:#381999;fill-opacity:1;fill-rule:nonzero;stroke:none"
         d="m 13013.3,6548 -310.4,968.6 h 240 l 117.8,-409.6 c 33.1,-114.9 63.2,-225.6 86.2,-346.3 h 4.3 c 24.5,116.4 54.6,231.4 87.7,342 l 123.6,413.9 h 232.8 L 13269.1,6548 h -255.8" /><path
         id="path72"
         style="fill:#381999;fill-opacity:1;fill-rule:nonzero;stroke:none"
         d="m 13652.8,6548 v 702.7 h 218.4 V 6548 Z m 225.6,898.2 c 0,-60.4 -46,-109.2 -117.8,-109.2 -69,0 -115,48.8 -113.6,109.2 -1.4,63.2 44.6,110.6 115,110.6 70.4,0 115,-47.4 116.4,-110.6" /><path
         id="path74"
         style="fill:#381999;fill-opacity:1;fill-rule:nonzero;stroke:none"
         d="m 14509.3,6953.3 c 0,11.5 -1.5,27.3 -2.9,38.8 -12.9,58.9 -60.4,107.7 -127.9,107.7 -99.2,0 -150.9,-89.1 -150.9,-199.7 0,-119.3 58.9,-194 149.5,-194 63.2,0 113.5,43.1 126.4,104.9 4.3,15.8 5.8,31.6 5.8,50.3 z m 218.4,615 v -810.5 c 0,-79 2.9,-162.4 5.8,-209.8 h -194 l -10.1,103.5 h -2.9 c -44.5,-79.1 -129.3,-119.3 -219.8,-119.3 -166.8,0 -300.4,142.3 -300.4,360.7 -1.4,237.1 146.6,373.6 314.7,373.6 86.2,0 153.8,-30.1 185.4,-79 h 2.9 v 380.8 h 218.4" /><path
         id="path76"
         style="fill:#381999;fill-opacity:1;fill-rule:nonzero;stroke:none"
         d="m 15328.4,6979.1 c 0,53.2 -23,142.3 -123.6,142.3 -91.9,0 -129.3,-83.4 -135.1,-142.3 z m -257.2,-149.4 c 7.2,-90.6 96.3,-133.7 198.3,-133.7 74.7,0 135.1,10.1 194,28.8 l 28.8,-148.1 c -71.9,-28.7 -159.6,-43.1 -254.4,-43.1 -238.6,0 -375.1,138 -375.1,357.9 0,178.2 110.7,375 355,375 227,0 313.3,-176.7 313.3,-350.6 0,-37.4 -4.4,-70.4 -7.2,-86.2 h -452.7" /><g
         transform="scale(1.00344)"
         id="g78"><path
           id="path80"
           style="fill:#381999;fill-opacity:1;fill-rule:nonzero;stroke:none"
           d="m 15792.9,6876.48 c 0,-120.29 50.2,-210.58 143.2,-210.58 84.6,0 139,84.51 139,210.58 0,104.54 -40.1,210.47 -139,210.47 -104.5,0 -143.2,-107.33 -143.2,-210.47 z m 507.1,7.17 c 0,-256.42 -182,-373.82 -369.5,-373.82 -204.8,0 -362.4,134.64 -362.4,360.87 0,226.32 149,370.92 373.8,370.92 214.9,0 358.1,-147.49 358.1,-357.97" /></g><g
         transform="scale(1.04187)"
         id="g82"><path
           id="path84"
           style="fill:#381999;fill-opacity:1;fill-rule:nonzero;stroke:none"
           d="m 15826.9,6468.27 c 38.7,-23.42 118.6,-50.97 180.7,-50.97 63.5,0 89.7,21.98 89.7,56.54 0,34.45 -20.7,50.96 -99.4,77.26 -139.2,46.84 -193.1,122.76 -191.6,202.71 0,125.55 107.5,220.66 274.4,220.66 78.7,0 148.9,-17.85 190.4,-38.58 l -37.2,-144.84 c -30.5,16.6 -88.3,38.68 -146.3,38.68 -51,0 -80,-20.73 -80,-55.19 0,-31.77 26.2,-48.27 109,-77.26 128.3,-44.15 182.1,-108.94 183.4,-208.28 0,-125.54 -99.2,-217.97 -292.4,-217.97 -88.3,0 -166.9,19.29 -217.9,46.93 l 37.2,150.31" /></g><g
         transform="scale(1.03504)"
         id="g86"><path
           id="path88"
           style="fill:none;stroke:#381999;stroke-width:115.70600128;stroke-linecap:round;stroke-linejoin:round;stroke-miterlimit:10;stroke-dasharray:634.301, 634.301;stroke-dashoffset:0;stroke-opacity:1"
           d="m 6349.29,14294.4 c -11.88,147.8 -17.94,297.2 -17.94,448.1 0,540.9 77.88,1063.6 223.03,1557.5" /></g><path
         id="path90"
         style="fill:none;stroke:#381999;stroke-width:119.76000214;stroke-linecap:round;stroke-linejoin:round;stroke-miterlimit:10;stroke-dasharray:656.526, 656.526;stroke-dashoffset:0;stroke-opacity:1"
         d="m 13046.6,9604.9 c -256.9,-35.3 -519.1,-53.6 -785.7,-53.6 -958.1,0 -1861,236 -2653.84,653.2" /><g
         transform="scale(1.10237)"
         id="g92"><path
           id="path94"
           style="fill:none;stroke:#381999;stroke-width:108.63899994;stroke-linecap:round;stroke-linejoin:round;stroke-miterlimit:10;stroke-dasharray:595.56, 595.56;stroke-dashoffset:0;stroke-opacity:1"
           d="m 15881.9,15883.9 c 269.1,-626.5 418.1,-1316.8 418.1,-2041.9 0,-7.4 0,-14.8 0,-22.3" /></g><g
         transform="scale(1.19324)"
         id="g96"><path
           id="path98"
           style="fill:#83d6ff;fill-opacity:1;fill-rule:nonzero;stroke:none"
           d="m 13787.4,12787.9 c 0,-1939.6 -1572.4,-3512.03 -3512.1,-3512.03 -1939.6,0 -3512,1572.43 -3512,3512.03 0,1939.7 1572.4,3512.1 3512,3512.1 1939.7,0 3512.1,-1572.4 3512.1,-3512.1" /></g><path
         id="path100"
         style="fill:#ffffff;fill-opacity:1;fill-rule:nonzero;stroke:none"
         d="m 11895.9,14539.8 v -3133.4 l -3152.52,-15.5 v 3159.7" /><path
         id="path102"
         style="fill:none;stroke:#381999;stroke-width:119.76000214;stroke-linecap:round;stroke-linejoin:round;stroke-miterlimit:10;stroke-dasharray:none;stroke-opacity:1"
         d="m 11895.9,14539.8 v -3133.4 l -3152.52,-15.5 v 3159.7" /><path
         id="path104"
         style="fill:#ffffff;fill-opacity:1;fill-rule:nonzero;stroke:none"
         d="M 12440.3,10568.5 H 7235.64" /><path
         id="path106"
         style="fill:none;stroke:#381999;stroke-width:119.76000214;stroke-linecap:round;stroke-linejoin:round;stroke-miterlimit:10;stroke-dasharray:none;stroke-opacity:1"
         d="M 12440.3,10568.5 H 7235.64" /><path
         id="path108"
         style="fill:#ffffff;fill-opacity:1;fill-rule:nonzero;stroke:none"
         d="m 9890.1,15380.2 h 2550.2" /><path
         id="path110"
         style="fill:none;stroke:#381999;stroke-width:119.76000214;stroke-linecap:round;stroke-linejoin:round;stroke-miterlimit:10;stroke-dasharray:none;stroke-opacity:1"
         d="m 9890.1,15380.2 h 2550.2" /><path
         id="path112"
         style="fill:#ffffff;fill-opacity:1;fill-rule:nonzero;stroke:none"
         d="M 9127.4,15380.2 H 7235.64" /><path
         id="path114"
         style="fill:none;stroke:#381999;stroke-width:119.76000214;stroke-linecap:round;stroke-linejoin:round;stroke-miterlimit:10;stroke-dasharray:none;stroke-opacity:1"
         d="M 9127.4,15380.2 H 7235.64" /><path
         id="path116"
         style="fill:#ffffff;fill-opacity:1;fill-rule:nonzero;stroke:none"
         d="m 10750.7,14550.6 h 1689.6" /><path
         id="path118"
         style="fill:none;stroke:#381999;stroke-width:119.76000214;stroke-linecap:round;stroke-linejoin:round;stroke-miterlimit:10;stroke-dasharray:none;stroke-opacity:1"
         d="m 10750.7,14550.6 h 1689.6" /><path
         id="path120"
         style="fill:#ffffff;fill-opacity:1;fill-rule:nonzero;stroke:none"
         d="M 7235.64,14550.6 H 8413.67" /><path
         id="path122"
         style="fill:none;stroke:#381999;stroke-width:119.76000214;stroke-linecap:round;stroke-linejoin:round;stroke-miterlimit:10;stroke-dasharray:none;stroke-opacity:1"
         d="M 7235.64,14550.6 H 8413.67" /><path
         id="path124"
         style="fill:#ffffff;fill-opacity:1;fill-rule:nonzero;stroke:none"
         d="M 8076.12,11398.1 H 12440.3" /><path
         id="path126"
         style="fill:none;stroke:#381999;stroke-width:119.76000214;stroke-linecap:round;stroke-linejoin:round;stroke-miterlimit:10;stroke-dasharray:none;stroke-opacity:1"
         d="M 8076.12,11398.1 H 12440.3" /><path
         id="path128"
         style="fill:#ffffff;fill-opacity:1;fill-rule:nonzero;stroke:none"
         d="M 8728.95,15380.2 V 14778" /><path
         id="path130"
         style="fill:none;stroke:#381999;stroke-width:119.76000214;stroke-linecap:round;stroke-linejoin:round;stroke-miterlimit:10;stroke-dasharray:none;stroke-opacity:1"
         d="M 8728.95,15380.2 V 14778" /><path
         id="path132"
         style="fill:#ffffff;fill-opacity:1;fill-rule:nonzero;stroke:none"
         d="m 10388.2,15380.2 v -445" /><path
         id="path134"
         style="fill:none;stroke:#381999;stroke-width:119.76000214;stroke-linecap:round;stroke-linejoin:round;stroke-miterlimit:10;stroke-dasharray:none;stroke-opacity:1"
         d="m 10388.2,15380.2 v -445" /><path
         id="path136"
         style="fill:#ffffff;fill-opacity:1;fill-rule:nonzero;stroke:none"
         d="m 11217.8,15380.2 v -829.6" /><path
         id="path138"
         style="fill:none;stroke:#381999;stroke-width:119.76000214;stroke-linecap:round;stroke-linejoin:round;stroke-miterlimit:10;stroke-dasharray:none;stroke-opacity:1"
         d="m 11217.8,15380.2 v -829.6" /><path
         id="path140"
         style="fill:#ffffff;fill-opacity:1;fill-rule:nonzero;stroke:none"
         d="m 12047.4,15380.2 v -829.6" /><path
         id="path142"
         style="fill:none;stroke:#381999;stroke-width:119.76000214;stroke-linecap:round;stroke-linejoin:round;stroke-miterlimit:10;stroke-dasharray:none;stroke-opacity:1"
         d="m 12047.4,15380.2 v -829.6" /><path
         id="path144"
         style="fill:#ffffff;fill-opacity:1;fill-rule:nonzero;stroke:none"
         d="m 7899.34,15369 v -818.4" /><path
         id="path146"
         style="fill:none;stroke:#381999;stroke-width:119.76000214;stroke-linecap:round;stroke-linejoin:round;stroke-miterlimit:10;stroke-dasharray:none;stroke-opacity:1"
         d="m 7899.34,15369 v -818.4" /><path
         id="path148"
         style="fill:#ffffff;fill-opacity:1;fill-rule:nonzero;stroke:none"
         d="m 8728.95,11398.1 v -801.6" /><path
         id="path150"
         style="fill:none;stroke:#381999;stroke-width:119.76000214;stroke-linecap:round;stroke-linejoin:round;stroke-miterlimit:10;stroke-dasharray:none;stroke-opacity:1"
         d="m 8728.95,11398.1 v -801.6" /><path
         id="path152"
         style="fill:#ffffff;fill-opacity:1;fill-rule:nonzero;stroke:none"
         d="m 9558.56,11398.1 v -801.6" /><path
         id="path154"
         style="fill:none;stroke:#381999;stroke-width:119.76000214;stroke-linecap:round;stroke-linejoin:round;stroke-miterlimit:10;stroke-dasharray:none;stroke-opacity:1"
         d="m 9558.56,11398.1 v -801.6" /><path
         id="path156"
         style="fill:#ffffff;fill-opacity:1;fill-rule:nonzero;stroke:none"
         d="m 10388.2,11398.1 v -801.6" /><path
         id="path158"
         style="fill:none;stroke:#381999;stroke-width:119.76000214;stroke-linecap:round;stroke-linejoin:round;stroke-miterlimit:10;stroke-dasharray:none;stroke-opacity:1"
         d="m 10388.2,11398.1 v -801.6" /><path
         id="path160"
         style="fill:#ffffff;fill-opacity:1;fill-rule:nonzero;stroke:none"
         d="m 11217.8,11398.1 v -801.6" /><path
         id="path162"
         style="fill:none;stroke:#381999;stroke-width:119.76000214;stroke-linecap:round;stroke-linejoin:round;stroke-miterlimit:10;stroke-dasharray:none;stroke-opacity:1"
         d="m 11217.8,11398.1 v -801.6" /><path
         id="path164"
         style="fill:#ffffff;fill-opacity:1;fill-rule:nonzero;stroke:none"
         d="m 12047.4,11398.1 v -801.6" /><path
         id="path166"
         style="fill:none;stroke:#381999;stroke-width:119.76000214;stroke-linecap:round;stroke-linejoin:round;stroke-miterlimit:10;stroke-dasharray:none;stroke-opacity:1"
         d="m 12047.4,11398.1 v -801.6" /><path
         id="path168"
         style="fill:#ffffff;fill-opacity:1;fill-rule:nonzero;stroke:none"
         d="m 7899.34,11299.5 v -703" /><path
         id="path170"
         style="fill:none;stroke:#381999;stroke-width:119.76000214;stroke-linecap:round;stroke-linejoin:round;stroke-miterlimit:10;stroke-dasharray:none;stroke-opacity:1"
         d="m 7899.34,11299.5 v -703" /><path
         id="path172"
         style="fill:#ffe261;fill-opacity:1;fill-rule:nonzero;stroke:none"
         d="m 8781.69,14795.8 541.33,903.6 c 181.97,303.8 575.74,402.5 879.48,220.6 v 0 l -686.02,-1145.2" /><path
         id="path174"
         style="fill:none;stroke:#381999;stroke-width:119.76000214;stroke-linecap:round;stroke-linejoin:round;stroke-miterlimit:10;stroke-dasharray:none;stroke-opacity:1"
         d="m 8781.69,14795.8 541.33,903.6 c 181.97,303.8 575.74,402.5 879.48,220.6 v 0 l -686.02,-1145.2" /><path
         id="path176"
         style="fill:#ffe261;fill-opacity:1;fill-rule:nonzero;stroke:none"
         d="m 8874.34,13702.8 -716.49,-1196 -617.11,217.5 650.25,1085.5" /><path
         id="path178"
         style="fill:none;stroke:#381999;stroke-width:119.76000214;stroke-linecap:round;stroke-linejoin:round;stroke-miterlimit:10;stroke-dasharray:none;stroke-opacity:1"
         d="m 8874.34,13702.8 -716.49,-1196 -617.11,217.5 650.25,1085.5" /><path
         id="path180"
         style="fill:#ffe261;fill-opacity:1;fill-rule:nonzero;stroke:none"
         d="m 9415.18,14082.8 919.02,185.4 c 347.1,70 571.7,408.2 501.7,755.3 v 0 l -1616.69,-326.2" /><path
         id="path182"
         style="fill:none;stroke:#381999;stroke-width:119.76000214;stroke-linecap:round;stroke-linejoin:round;stroke-miterlimit:10;stroke-dasharray:none;stroke-opacity:1"
         d="m 9415.18,14082.8 919.02,185.4 c 347.1,70 571.7,408.2 501.7,755.3 v 0 l -1616.69,-326.2" /><path
         id="path184"
         style="fill:#ffe261;fill-opacity:1;fill-rule:nonzero;stroke:none"
         d="m 8390.73,14530.2 -1443.64,-291.2 -28.95,-659.9 1544.47,311.5" /><path
         id="path186"
         style="fill:none;stroke:#381999;stroke-width:119.76000214;stroke-linecap:round;stroke-linejoin:round;stroke-miterlimit:10;stroke-dasharray:none;stroke-opacity:1"
         d="m 8390.73,14530.2 -1443.64,-291.2 -28.95,-659.9 1544.47,311.5" /><path
         id="path188"
         style="fill:#ffffff;fill-opacity:1;fill-rule:nonzero;stroke:none"
         d="m 9307.7,14567.4 c 171.55,-242.8 113.76,-578.7 -129.06,-750.3 -242.84,-171.5 -578.77,-113.7 -750.32,129.1 -171.56,242.8 -113.78,578.7 129.05,750.3 242.84,171.6 578.76,113.8 750.33,-129.1" /><path
         id="path190"
         style="fill:none;stroke:#381999;stroke-width:119.76000214;stroke-linecap:round;stroke-linejoin:round;stroke-miterlimit:10;stroke-dasharray:none;stroke-opacity:1"
         d="m 9307.7,14567.4 c 171.55,-242.8 113.76,-578.7 -129.06,-750.3 -242.84,-171.5 -578.77,-113.7 -750.32,129.1 -171.56,242.8 -113.78,578.7 129.05,750.3 242.84,171.6 578.76,113.8 750.33,-129.1 z" /><path
         id="path192"
         style="fill:#ffaa4d;fill-opacity:1;fill-rule:nonzero;stroke:none"
         d="m 6855.19,14361.8 c 231.61,-327.9 153.6,-781.4 -174.23,-1013 -327.83,-231.6 -781.35,-153.6 -1012.96,174.2 -231.61,327.9 -153.61,781.4 174.23,1013 327.83,231.6 781.34,153.6 1012.96,-174.2" /><path
         id="path194"
         style="fill:none;stroke:#381999;stroke-width:119.76000214;stroke-linecap:round;stroke-linejoin:round;stroke-miterlimit:10;stroke-dasharray:none;stroke-opacity:1"
         d="m 6855.19,14361.8 c 231.61,-327.9 153.6,-781.4 -174.23,-1013 -327.83,-231.6 -781.35,-153.6 -1012.96,174.2 -231.61,327.9 -153.61,781.4 174.23,1013 327.83,231.6 781.34,153.6 1012.96,-174.2 z" /><path
         id="path196"
         style="fill:#ffaa4d;fill-opacity:1;fill-rule:nonzero;stroke:none"
         d="m 8235.77,12407.6 c 231.61,-327.8 153.61,-781.3 -174.23,-1013 -327.83,-231.6 -781.34,-153.6 -1012.96,174.3 -231.61,327.8 -153.6,781.3 174.23,1012.9 327.83,231.6 781.36,153.7 1012.96,-174.2" /><path
         id="path198"
         style="fill:none;stroke:#381999;stroke-width:119.76000214;stroke-linecap:round;stroke-linejoin:round;stroke-miterlimit:10;stroke-dasharray:none;stroke-opacity:1"
         d="m 8235.77,12407.6 c 231.61,-327.8 153.61,-781.3 -174.23,-1013 -327.83,-231.6 -781.34,-153.6 -1012.96,174.3 -231.61,327.8 -153.6,781.3 174.23,1012.9 327.83,231.6 781.36,153.7 1012.96,-174.2 z" /><g
         transform="scale(1.11439)"
         id="g200"><path
           id="path202"
           style="fill:#ffaa4d;fill-opacity:1;fill-rule:nonzero;stroke:none"
           d="M 15229.7,11180.5 16256,8976.33 c 44,-94.31 -34.6,-201.19 -127.8,-173.91 l -456.3,133.35 c -43.7,12.74 -89.2,-12.48 -105.7,-58.69 l -173.1,-485.02 c -35.1,-98.26 -159.3,-104.99 -203,-11.12 l -1031,2397.96 -1024,-2397.96 c -43.7,-93.87 -168,-87.14 -203.1,11.12 l -173.1,485.02 c -16.5,46.21 -62,71.43 -105.7,58.69 l -456.1,-133.35 c -93.2,-27.28 -171.8,79.6 -127.9,173.91 l 1026.3,2204.17" /></g><g
         transform="scale(1.11439)"
         id="g204"><path
           id="path206"
           style="fill:none;stroke:#381999;stroke-width:107.46700287;stroke-linecap:round;stroke-linejoin:round;stroke-miterlimit:10;stroke-dasharray:none;stroke-opacity:1"
           d="M 15229.7,11180.5 16256,8976.33 c 44,-94.31 -34.6,-201.19 -127.8,-173.91 l -456.3,133.35 c -43.7,12.74 -89.2,-12.48 -105.7,-58.69 l -173.1,-485.02 c -35.1,-98.26 -159.3,-104.99 -203,-11.12 l -1031,2397.96 -1024,-2397.96 c -43.7,-93.87 -168,-87.14 -203.1,11.12 l -173.1,485.02 c -16.5,46.21 -62,71.43 -105.7,58.69 l -456.1,-133.35 c -93.2,-27.28 -171.8,79.6 -127.9,173.91 l 1026.3,2204.17" /></g><g
         transform="scale(1.14117)"
         id="g208"><path
           id="path210"
           style="fill:#ffe261;fill-opacity:1;fill-rule:nonzero;stroke:none"
           d="m 13941.2,14291.1 202.4,-247.9 c 30.3,-37 83.4,-45.4 123.7,-19.6 l 269.1,173.3 c 49.9,32.2 116.9,10.4 138.4,-45 l 115.9,-298.3 c 17.3,-44.6 65.3,-69.1 111.5,-56.9 l 309.5,81.6 c 57.5,15.2 114.5,-26.2 117.8,-85.5 l 18,-319.6 c 2.7,-47.7 40.8,-85.8 88.6,-88.5 l 319.5,-18 c 59.3,-3.4 100.7,-60.3 85.6,-117.8 l -81.7,-309.4 c -12.2,-46.3 12.3,-94.3 56.9,-111.6 l 298.3,-115.9 c 55.4,-21.5 77.2,-88.4 45,-138.4 l -173.2,-269.1 c -26,-40.3 -17.6,-93.5 19.5,-123.7 l 247.9,-202.4 c 46.1,-37.6 46.1,-108 0,-145.6 l -247.9,-202.3 c -37.1,-30.2 -45.5,-83.5 -19.5,-123.7 l 173.2,-269.1 c 32.2,-50 10.4,-116.9 -45,-138.4 l -298.3,-115.9 c -44.6,-17.3 -69.1,-65.3 -56.9,-111.6 l 81.7,-309.4 c 15.1,-57.5 -26.3,-114.5 -85.6,-117.8 l -319.5,-18 c -47.8,-2.7 -85.9,-40.8 -88.6,-88.5 l -18,-319.6 c -3.3,-59.35 -60.3,-100.71 -117.8,-85.55 l -309.5,81.55 c -46.2,12.2 -94.2,-12.2 -111.5,-56.75 l -115.9,-298.38 c -21.5,-55.38 -88.5,-77.12 -138.4,-44.96 l -269.1,173.25 c -40.3,25.85 -93.4,17.44 -123.7,-19.63 l -202.4,-247.9 c -37.6,-46.01 -108,-46.01 -145.6,0 l -202.3,247.9 c -30.2,37.07 -83.5,45.48 -123.7,19.63 l -269,-173.25 c -50.1,-32.16 -117,-10.42 -138.5,44.96 l -115.9,298.38 c -17.3,44.55 -65.3,68.95 -111.6,56.75 l -309.4,-81.55 c -57.5,-15.16 -114.4,26.2 -117.8,85.55 l -18,319.6 c -2.7,47.7 -40.8,85.8 -88.5,88.5 l -319.5,18 c -59.4,3.3 -100.8,60.3 -85.6,117.8 l 81.5,309.4 c 12.2,46.3 -12.2,94.3 -56.7,111.6 l -298.4,115.9 c -55.4,21.5 -77.1,88.4 -45,138.4 l 173.3,269.1 c 25.8,40.2 17.4,93.5 -19.7,123.7 l -247.9,202.3 c -46,37.6 -46,108 0,145.6 l 247.9,202.4 c 37.1,30.2 45.5,83.4 19.7,123.7 l -173.3,269.1 c -32.1,50 -10.4,116.9 45,138.4 l 298.4,115.9 c 44.5,17.3 68.9,65.3 56.7,111.6 l -81.5,309.4 c -15.2,57.5 26.2,114.4 85.6,117.8 l 319.5,18 c 47.7,2.7 85.8,40.8 88.5,88.5 l 18,319.6 c 3.4,59.3 60.3,100.7 117.8,85.5 l 309.4,-81.6 c 46.3,-12.2 94.3,12.3 111.6,56.9 l 115.9,298.3 c 21.5,55.4 88.4,77.2 138.5,45 l 269,-173.3 c 40.2,-25.8 93.5,-17.4 123.7,19.6 l 202.3,247.9 c 37.6,46.1 108,46.1 145.6,0" /></g><g
         transform="scale(1.14117)"
         id="g212"><path
           id="path214"
           style="fill:none;stroke:#381999;stroke-width:104.94499969;stroke-linecap:round;stroke-linejoin:round;stroke-miterlimit:10;stroke-dasharray:none;stroke-opacity:1"
           d="m 13941.2,14291.1 202.4,-247.9 c 30.3,-37 83.4,-45.4 123.7,-19.6 l 269.1,173.3 c 49.9,32.2 116.9,10.4 138.4,-45 l 115.9,-298.3 c 17.3,-44.6 65.3,-69.1 111.5,-56.9 l 309.5,81.6 c 57.5,15.2 114.5,-26.2 117.8,-85.5 l 18,-319.6 c 2.7,-47.7 40.8,-85.8 88.6,-88.5 l 319.5,-18 c 59.3,-3.4 100.7,-60.3 85.6,-117.8 l -81.7,-309.4 c -12.2,-46.3 12.3,-94.3 56.9,-111.6 l 298.3,-115.9 c 55.4,-21.5 77.2,-88.4 45,-138.4 l -173.2,-269.1 c -26,-40.3 -17.6,-93.5 19.5,-123.7 l 247.9,-202.4 c 46.1,-37.6 46.1,-108 0,-145.6 l -247.9,-202.3 c -37.1,-30.2 -45.5,-83.5 -19.5,-123.7 l 173.2,-269.1 c 32.2,-50 10.4,-116.9 -45,-138.4 l -298.3,-115.9 c -44.6,-17.3 -69.1,-65.3 -56.9,-111.6 l 81.7,-309.4 c 15.1,-57.5 -26.3,-114.5 -85.6,-117.8 l -319.5,-18 c -47.8,-2.7 -85.9,-40.8 -88.6,-88.5 l -18,-319.6 c -3.3,-59.35 -60.3,-100.71 -117.8,-85.55 l -309.5,81.55 c -46.2,12.2 -94.2,-12.2 -111.5,-56.75 l -115.9,-298.38 c -21.5,-55.38 -88.5,-77.12 -138.4,-44.96 l -269.1,173.25 c -40.3,25.85 -93.4,17.44 -123.7,-19.63 l -202.4,-247.9 c -37.6,-46.01 -108,-46.01 -145.6,0 l -202.3,247.9 c -30.2,37.07 -83.5,45.48 -123.7,19.63 l -269,-173.25 c -50.1,-32.16 -117,-10.42 -138.5,44.96 l -115.9,298.38 c -17.3,44.55 -65.3,68.95 -111.6,56.75 l -309.4,-81.55 c -57.5,-15.16 -114.4,26.2 -117.8,85.55 l -18,319.6 c -2.7,47.7 -40.8,85.8 -88.5,88.5 l -319.5,18 c -59.4,3.3 -100.8,60.3 -85.6,117.8 l 81.5,309.4 c 12.2,46.3 -12.2,94.3 -56.7,111.6 l -298.4,115.9 c -55.4,21.5 -77.1,88.4 -45,138.4 l 173.3,269.1 c 25.8,40.2 17.4,93.5 -19.7,123.7 l -247.9,202.3 c -46,37.6 -46,108 0,145.6 l 247.9,202.4 c 37.1,30.2 45.5,83.4 19.7,123.7 l -173.3,269.1 c -32.1,50 -10.4,116.9 45,138.4 l 298.4,115.9 c 44.5,17.3 68.9,65.3 56.7,111.6 l -81.5,309.4 c -15.2,57.5 26.2,114.4 85.6,117.8 l 319.5,18 c 47.7,2.7 85.8,40.8 88.5,88.5 l 18,319.6 c 3.4,59.3 60.3,100.7 117.8,85.5 l 309.4,-81.6 c 46.3,-12.2 94.3,12.3 111.6,56.9 l 115.9,298.3 c 21.5,55.4 88.4,77.2 138.5,45 l 269,-173.3 c 40.2,-25.8 93.5,-17.4 123.7,19.6 l 202.3,247.9 c 37.6,46.1 108,46.1 145.6,0 z" /></g><g
         transform="scale(1.07696)"
         id="g216"><path
           id="path218"
           style="fill:#ffffff;fill-opacity:1;fill-rule:nonzero;stroke:none"
           d="m 16300,12615.5 c 0,-886.2 -718.4,-1604.7 -1604.6,-1604.7 -886.3,0 -1604.7,718.5 -1604.7,1604.7 0,886.3 718.4,1604.7 1604.7,1604.7 886.2,0 1604.6,-718.4 1604.6,-1604.7" /></g><g
         transform="scale(1.07696)"
         id="g220"><path
           id="path222"
           style="fill:none;stroke:#381999;stroke-width:111.20200348;stroke-linecap:round;stroke-linejoin:round;stroke-miterlimit:10;stroke-dasharray:none;stroke-opacity:1"
           d="m 16300,12615.5 c 0,-886.2 -718.4,-1604.7 -1604.6,-1604.7 -886.3,0 -1604.7,718.5 -1604.7,1604.7 0,886.3 718.4,1604.7 1604.7,1604.7 886.2,0 1604.6,-718.4 1604.6,-1604.7 z" /></g><g
         transform="scale(1.01579)"
         id="g224"><path
           id="path226"
           style="fill:none;stroke:#381999;stroke-width:117.89800262;stroke-linecap:round;stroke-linejoin:round;stroke-miterlimit:10;stroke-dasharray:none;stroke-opacity:1"
           d="m 14960.4,13206.2 511.4,-407.1 828.2,1034.2" /></g><g
         transform="scale(1.1876)"
         id="g228"><path
           id="path230"
           style="fill:#ffe261;fill-opacity:1;fill-rule:nonzero;stroke:none"
           d="m 8368.07,14367.8 h -2526.4 c -113.52,0 -205.53,92 -205.53,205.5 v 1521.1 c 0,113.5 92.01,205.6 205.53,205.6 h 2526.4 c 113.47,0 205.5,-92.1 205.5,-205.6 v -1521.1 c 0,-113.5 -92.03,-205.5 -205.5,-205.5" /></g><g
         transform="scale(1.1876)"
         id="g232"><path
           id="path234"
           style="fill:none;stroke:#381999;stroke-width:100.84200287;stroke-linecap:round;stroke-linejoin:round;stroke-miterlimit:10;stroke-dasharray:none;stroke-opacity:1"
           d="m 8368.07,14367.8 h -2526.4 c -113.52,0 -205.53,92 -205.53,205.5 v 1521.1 c 0,113.5 92.01,205.6 205.53,205.6 h 2526.4 c 113.47,0 205.5,-92.1 205.5,-205.6 v -1521.1 c 0,-113.5 -92.03,-205.5 -205.5,-205.5 z" /></g><g
         transform="scale(1.16094)"
         id="g236"><path
           id="path238"
           style="fill:#ffffff;fill-opacity:1;fill-rule:nonzero;stroke:none"
           d="M 6877.55,16094.1 V 15278 c 0,-128 141.02,-205.8 249.36,-137.6 l 648.06,408 c 101.35,63.8 101.35,211.5 0,275.3 l -648.06,408.1 c -108.34,68.2 -249.36,-9.7 -249.36,-137.7" /></g><g
         transform="scale(1.16094)"
         id="g240"><path
           id="path242"
           style="fill:none;stroke:#381999;stroke-width:103.15799713;stroke-linecap:round;stroke-linejoin:round;stroke-miterlimit:10;stroke-dasharray:none;stroke-opacity:1"
           d="M 6877.55,16094.1 V 15278 c 0,-128 141.02,-205.8 249.36,-137.6 l 648.06,408 c 101.35,63.8 101.35,211.5 0,275.3 l -648.06,408.1 c -108.34,68.2 -249.36,-9.7 -249.36,-137.7 z" /></g><g
         transform="scale(1.1876)"
         id="g244"><path
           id="path246"
           style="fill:#ffe261;fill-opacity:1;fill-rule:nonzero;stroke:none"
           d="M 11706.3,14367.8 H 9179.84 c -113.51,0 -205.54,92 -205.54,205.5 v 1521.1 c 0,113.5 92.03,205.6 205.54,205.6 h 2526.46 c 113.5,0 205.5,-92.1 205.5,-205.6 v -1521.1 c 0,-113.5 -92,-205.5 -205.5,-205.5" /></g><g
         transform="scale(1.1876)"
         id="g248"><path
           id="path250"
           style="fill:none;stroke:#381999;stroke-width:100.84200287;stroke-linecap:round;stroke-linejoin:round;stroke-miterlimit:10;stroke-dasharray:none;stroke-opacity:1"
           d="M 11706.3,14367.8 H 9179.84 c -113.51,0 -205.54,92 -205.54,205.5 v 1521.1 c 0,113.5 92.03,205.6 205.54,205.6 h 2526.46 c 113.5,0 205.5,-92.1 205.5,-205.6 v -1521.1 c 0,-113.5 -92,-205.5 -205.5,-205.5 z" /></g><g
         transform="scale(1.16094)"
         id="g252"><path
           id="path254"
           style="fill:#ffffff;fill-opacity:1;fill-rule:nonzero;stroke:none"
           d="M 10292.4,16094.1 V 15278 c 0,-128 141.1,-205.8 249.3,-137.6 l 648.1,408 c 101.4,63.8 101.4,211.5 0,275.3 l -648.1,408.1 c -108.2,68.2 -249.3,-9.7 -249.3,-137.7" /></g><g
         transform="scale(1.16094)"
         id="g256"><path
           id="path258"
           style="fill:none;stroke:#381999;stroke-width:103.15799713;stroke-linecap:round;stroke-linejoin:round;stroke-miterlimit:10;stroke-dasharray:none;stroke-opacity:1"
           d="M 10292.4,16094.1 V 15278 c 0,-128 141.1,-205.8 249.3,-137.6 l 648.1,408 c 101.4,63.8 101.4,211.5 0,275.3 l -648.1,408.1 c -108.2,68.2 -249.3,-9.7 -249.3,-137.7 z" /></g><g
         transform="scale(1.20853)"
         id="g260"><path
           id="path262"
           style="fill:#ffaa4d;fill-opacity:1;fill-rule:nonzero;stroke:none"
           d="m 14227.8,14678.2 c -215.6,-561 -845.2,-840.9 -1406.1,-625.3 -561,215.7 -840.9,845.2 -625.3,1406.2 215.6,560.9 845.2,840.9 1406.1,625.3 561,-215.7 840.9,-845.2 625.3,-1406.2" /></g><g
         transform="scale(1.20853)"
         id="g264"><path
           id="path266"
           style="fill:none;stroke:#381999;stroke-width:99.09559631;stroke-linecap:round;stroke-linejoin:round;stroke-miterlimit:10;stroke-dasharray:none;stroke-opacity:1"
           d="m 14227.8,14678.2 c -215.6,-561 -845.2,-840.9 -1406.1,-625.3 -561,215.7 -840.9,845.2 -625.3,1406.2 215.6,560.9 845.2,840.9 1406.1,625.3 561,-215.7 840.9,-845.2 625.3,-1406.2 z" /></g><g
         transform="scale(1.16835)"
         id="g268"><path
           id="path270"
           style="fill:#ffffff;fill-opacity:1;fill-rule:nonzero;stroke:none"
           d="m 14282.8,15780.7 h -422.5 v 422.4 c 0,53.5 -43.4,96.9 -96.9,96.9 h -194 c -53.5,0 -96.9,-43.4 -96.9,-96.9 v -422.4 h -422.4 c -53.5,0 -96.9,-43.4 -96.9,-96.9 v -193.9 c 0,-53.5 43.4,-96.9 96.9,-96.9 h 422.4 v -422.5 c 0,-53.5 43.4,-96.9 96.9,-96.9 h 194 c 53.5,0 96.9,43.4 96.9,96.9 v 422.5 h 422.5 c 53.4,0 96.8,43.4 96.8,96.9 v 193.9 c 0,53.5 -43.4,96.9 -96.8,96.9" /></g><g
         transform="scale(1.16835)"
         id="g272"><path
           id="path274"
           style="fill:none;stroke:#381999;stroke-width:102.50299835;stroke-linecap:round;stroke-linejoin:round;stroke-miterlimit:10;stroke-dasharray:none;stroke-opacity:1"
           d="m 14282.8,15780.7 h -422.5 v 422.4 c 0,53.5 -43.4,96.9 -96.9,96.9 h -194 c -53.5,0 -96.9,-43.4 -96.9,-96.9 v -422.4 h -422.4 c -53.5,0 -96.9,-43.4 -96.9,-96.9 v -193.9 c 0,-53.5 43.4,-96.9 96.9,-96.9 h 422.4 v -422.5 c 0,-53.5 43.4,-96.9 96.9,-96.9 h 194 c 53.5,0 96.9,43.4 96.9,96.9 v 422.5 h 422.5 c 53.4,0 96.8,43.4 96.8,96.9 v 193.9 c 0,53.5 -43.4,96.9 -96.8,96.9 z" /></g><g
         transform="scale(1.2861)"
         id="g276"><path
           id="path278"
           style="fill:none;stroke:#381999;stroke-width:93.11859894;stroke-linecap:round;stroke-linejoin:round;stroke-miterlimit:10;stroke-dasharray:none;stroke-opacity:1"
           d="m 4877.09,16081.9 354.59,-268.1 c 337.05,-254.8 799.51,-264.9 1147.32,-25 l 405.49,279.8 c 318.19,219.5 735.69,231.4 1065.9,30.4 l 517.62,-315.1 c 284.96,-173.5 638.59,-190.1 938.49,-44 l 695.6,338.7 c 317.2,154.4 693,126.4 983.9,-73.4 l 645.6,-443.7 c 325.3,-223.5 752.9,-230 1084.8,-16.6 l 607.7,390.7" /></g></g></g></svg>