<svg xmlns="http://www.w3.org/2000/svg" version="1.1" xmlns:xlink="http://www.w3.org/1999/xlink" xmlns:svgjs="http://svgjs.dev/svgjs" width="1000" height="345" viewBox="0 0 1000 345"><g transform="matrix(1,0,0,1,-0.6060606060606233,0.2117479709554857)"><svg viewBox="0 0 396 137" data-background-color="#ffffff" preserveAspectRatio="xMidYMid meet" height="345" width="1000" xmlns="http://www.w3.org/2000/svg" xmlns:xlink="http://www.w3.org/1999/xlink"><defs></defs><g id="tight-bounds" transform="matrix(1,0,0,1,0.2400000000000091,-0.08408542614753856)"><svg viewBox="0 0 395.52 137.16802206001074" height="137.16802206001074" width="395.52"><g><svg viewBox="0 0 395.52 137.16802206001074" height="137.16802206001074" width="395.52"><g><svg viewBox="0 0 656.7184354816579 227.7527529464093" height="137.16802206001074" width="395.52"><g transform="matrix(1,0,0,1,261.1984354816579,61.37548147357643)"><svg viewBox="0 0 395.52 105.00178999925643" height="105.00178999925643" width="395.52"><g><svg viewBox="0 0 395.52 105.00178999925643" height="105.00178999925643" width="395.52"><g><rect width="75.54432" height="6.388125364232486" y="93.08659549276058" fill="#ffffff" data-fill-palette-color="tertiary"></rect><rect width="75.54432" height="6.388125364232486" y="93.08659549276058" x="319.97568" fill="#ffffff" data-fill-palette-color="tertiary"></rect></g><g><svg viewBox="0 0 395.52 70.83668508287292" height="70.83668508287292" width="395.52"><g transform="matrix(1,0,0,1,0,0)"><svg width="395.52" viewBox="0.44 -37.26 212.09 37.989999999999995" height="70.83668508287292" data-palette-color="#570df8"><path d="M25.54-12.3L25.54-12.3Q25.54-9.06 24.5-6.68 23.46-4.3 21.61-2.72 19.75-1.15 17.18-0.38 14.6 0.39 11.52 0.39L11.52 0.39Q10.13 0.39 8.67 0.12 7.2-0.15 5.76-0.61 4.32-1.07 2.97-1.71 1.61-2.34 0.44-3.08L0.44-3.08 1.37-12.89Q2.29-12.26 3.44-11.68 4.59-11.11 5.82-10.66 7.06-10.21 8.31-9.94 9.57-9.67 10.74-9.67L10.74-9.67Q11.43-9.67 12.15-9.78 12.87-9.89 13.45-10.18 14.04-10.47 14.42-11.01 14.79-11.55 14.79-12.4L14.79-12.4Q14.79-12.94 14.31-13.4 13.82-13.87 13.13-14.2 12.45-14.53 11.72-14.71 10.99-14.89 10.5-14.89L10.5-14.89Q10.16-14.89 9.68-14.86 9.2-14.82 8.72-14.75 8.23-14.67 7.78-14.54 7.32-14.4 7.08-14.21L7.08-14.21 7.23-21.19Q7.64-21.14 8.01-21.12 8.37-21.09 8.79-21.09L8.79-21.09Q9.64-21.09 10.64-21.25 11.65-21.41 12.5-21.81 13.35-22.22 13.93-22.92 14.5-23.63 14.5-24.76L14.5-24.76Q14.5-25.56 14.06-26.06 13.62-26.56 12.98-26.83 12.33-27.1 11.57-27.2 10.82-27.29 10.21-27.29L10.21-27.29Q8.23-27.29 6.31-26.61 4.39-25.93 2.93-24.61L2.93-24.61 0.88-33.5Q3.13-35.33 5.99-36.29 8.86-37.26 11.77-37.26L11.77-37.26Q14.43-37.26 16.86-36.49 19.29-35.72 21.14-34.22 23-32.71 24.1-30.52 25.2-28.32 25.2-25.44L25.2-25.44Q25.2-24.61 24.95-23.75 24.71-22.9 24.29-22.09 23.88-21.29 23.32-20.59 22.75-19.9 22.12-19.38L22.12-19.38Q23.14-18.92 23.8-18.14 24.46-17.36 24.85-16.41 25.24-15.45 25.39-14.39 25.54-13.33 25.54-12.3ZM52.41-12.3L52.41-12.3Q52.41-9.13 51.28-6.79 50.14-4.44 48.19-2.91 46.24-1.37 43.6-0.61 40.96 0.15 37.96 0.15L37.96 0.15Q36.52 0.15 35.13-0.06 33.74-0.27 32.38-0.62 31.03-0.98 29.7-1.44 28.37-1.9 27.02-2.44L27.02-2.44 27.95-12.16Q28.83-11.67 29.83-11.25 30.83-10.84 31.89-10.55 32.96-10.25 34.04-10.08 35.13-9.91 36.15-9.91L36.15-9.91Q36.77-9.91 37.64-10.02 38.52-10.13 39.33-10.44 40.13-10.74 40.71-11.27 41.28-11.79 41.28-12.65L41.28-12.65Q41.28-13.45 40.83-14.04 40.38-14.62 39.66-15 38.94-15.38 38.03-15.6 37.13-15.82 36.22-15.94 35.3-16.06 34.48-16.09 33.66-16.11 33.13-16.11L33.13-16.11Q32.03-16.11 30.89-16.02 29.76-15.92 28.68-15.63L28.68-15.63 29.66-35.35 49.44-35.89 49.97-25.68 37.72-26.37 37.47-22.02Q38.57-22.29 39.67-22.42 40.77-22.56 41.87-22.56L41.87-22.56Q44.09-22.56 46.01-21.84 47.92-21.12 49.35-19.78 50.78-18.43 51.6-16.54 52.41-14.65 52.41-12.3ZM78.78-35.6L91.91-35.6 89.67 0.24 78.54 0.73 78.63-18.16 73.6-2.93 69.31-2.93 65.45-16.55 65.4-0.73 54.12-0.39 54.61-34.13 67.16-34.62 72.14-18.46 78.78-35.6ZM93.89-33.69L106.88-34.38 104.19-1.12 93.89-0.59 93.89-33.69ZM136.22-19.38L136.22-19.38Q136.22-15.97 135.34-13.22 134.46-10.47 132.89-8.34 131.31-6.2 129.14-4.66 126.97-3.13 124.38-2.14 121.79-1.15 118.87-0.67 115.96-0.2 112.88-0.2L112.88-0.2Q111.73-0.2 110.63-0.26 109.54-0.32 108.39-0.44L108.39-0.44 109.07-33.2Q111.76-34.06 114.6-34.41 117.45-34.77 120.25-34.77L120.25-34.77Q123.74-34.77 126.67-33.72 129.6-32.67 131.73-30.69 133.85-28.71 135.04-25.85 136.22-23 136.22-19.38ZM126.21-17.48L126.21-17.82Q126.24-19.14 125.93-20.36 125.62-21.58 124.93-22.52 124.23-23.46 123.16-24.04 122.08-24.61 120.6-24.66L120.6-24.66 119.62-9.52Q121.08-9.74 122.28-10.49 123.48-11.23 124.34-12.32 125.21-13.4 125.69-14.73 126.16-16.06 126.21-17.48L126.21-17.48ZM165.34-19.38L165.34-19.38Q165.34-15.97 164.47-13.22 163.59-10.47 162.01-8.34 160.44-6.2 158.26-4.66 156.09-3.13 153.5-2.14 150.92-1.15 148-0.67 145.08-0.2 142-0.2L142-0.2Q140.86-0.2 139.76-0.26 138.66-0.32 137.51-0.44L137.51-0.44 138.2-33.2Q140.88-34.06 143.73-34.41 146.57-34.77 149.38-34.77L149.38-34.77Q152.87-34.77 155.8-33.72 158.73-32.67 160.85-30.69 162.98-28.71 164.16-25.85 165.34-23 165.34-19.38ZM155.33-17.48L155.33-17.82Q155.36-19.14 155.05-20.36 154.75-21.58 154.05-22.52 153.36-23.46 152.28-24.04 151.21-24.61 149.72-24.66L149.72-24.66 148.74-9.52Q150.21-9.74 151.4-10.49 152.6-11.23 153.47-12.32 154.33-13.4 154.81-14.73 155.29-16.06 155.33-17.48L155.33-17.48ZM188.27-13.92L188.27-13.92 187.24-3.08 166.68-1.46Q166.83-9.99 167.01-18.41 167.2-26.83 167.47-35.35L167.47-35.35 180.16-35.35Q179.6-30 179.09-24.67 178.57-19.34 178.35-13.92L178.35-13.92Q179.5-13.87 180.62-13.87 181.75-13.87 182.9-13.87L182.9-13.87Q184.26-13.87 185.58-13.89 186.9-13.92 188.27-13.92ZM190.02-35.21L212.53-35.21Q212.38-32.91 212.26-30.66 212.14-28.42 211.95-26.12L211.95-26.12 201.59-25.59 201.35-22.51 208.63-22.51 208.09-14.94 200.76-14.7 200.52-11.13 206.57-11.13 210.87-11.13Q210.72-8.45 210.57-5.8 210.41-3.15 210.29-0.49L210.29-0.49 189.24 0 190.02-35.21Z" opacity="1" transform="matrix(1,0,0,1,0,0)" fill="#ffffff" class="undefined-text-0" data-fill-palette-color="primary" id="text-0"></path></svg></g></svg></g><g transform="matrix(1,0,0,1,75.54432,87.55952635049722)"><svg viewBox="0 0 244.43135999999998 17.4422636487592" height="17.4422636487592" width="244.43135999999998"><g transform="matrix(1,0,0,1,8,0)"><svg width="228.43135999999998" viewBox="4.44 -40.5 537.1199999999999 41.01" height="17.4422636487592" data-palette-color="#570df8"><path d="M4.44 0L4.44-38.16 12.23-38.16 12.23 0 4.44 0ZM21.19 0L21.19-28.81 28.42-28.81 28.42-26.37Q31.3-28 33.92-28.66 36.55-29.32 39.06-29.32L39.06-29.32Q42.36-29.32 45.16-28.36 47.97-27.39 50.02-25.49 52.07-23.58 53.23-20.74 54.39-17.9 54.39-14.16L54.39-14.16 54.39 0 47.19 0 47.19-12.99Q47.19-15.36 46.52-17.22 45.85-19.09 44.59-20.37 43.33-21.66 41.54-22.33 39.74-23 37.52-23L37.52-23Q36.35-23 35.12-22.75 33.88-22.51 32.7-22.06 31.52-21.61 30.42-20.94 29.32-20.26 28.42-19.41L28.42-19.41 28.42 0 21.19 0ZM67.6 0L67.6-23.39 60.64-23.39 60.64-28.81 67.6-28.81 67.6-37.77 74.82-37.77 74.82-28.81 81.78-28.81 81.78-23.39 74.82-23.39 74.82 0 67.6 0ZM86.83-14.5L86.83-14.5Q86.83-17.43 88.03-20.1 89.23-22.78 91.47-24.83 93.72-26.88 96.98-28.1 100.24-29.32 104.39-29.32L104.39-29.32Q108.51-29.32 111.82-28.09 115.13-26.86 117.44-24.71 119.74-22.56 120.98-19.65 122.21-16.75 122.21-13.43L122.21-13.43Q122.21-13.01 122.2-12.54 122.18-12.06 122.14-11.67L122.14-11.67 94.89-11.67Q95.35-10.38 96.39-9.3 97.43-8.23 98.99-7.45 100.55-6.67 102.6-6.24 104.66-5.81 107.15-5.81L107.15-5.81Q109.64-5.81 112.1-6.34 114.57-6.86 116.81-7.67L116.81-7.67 119.26-2.15Q117.84-1.49 116.39-0.99 114.93-0.49 113.36-0.16 111.78 0.17 110.06 0.34 108.34 0.51 106.44 0.51L106.44 0.51Q101.58 0.51 97.92-0.66 94.26-1.83 91.79-3.86 89.32-5.88 88.08-8.62 86.83-11.35 86.83-14.5ZM94.89-17.31L114.54-17.31Q114.15-18.51 113.33-19.54 112.52-20.58 111.3-21.35 110.08-22.12 108.46-22.56 106.85-23 104.92-23L104.92-23Q102.87-23 101.19-22.53 99.5-22.07 98.23-21.29 96.97-20.51 96.12-19.48 95.28-18.46 94.89-17.31L94.89-17.31ZM129.97 0L129.97-28.81 137.2-28.81 137.2-24.66Q139.59-26.44 142.25-27.73 144.91-29.03 147.55-29.71L147.55-29.71 149.67-23.1Q145.5-22.68 142.34-21.23 139.17-19.78 137.2-17.14L137.2-17.14 137.2 0 129.97 0ZM153.67-9.08L153.67-9.08Q153.67-11.16 154.58-12.87 155.48-14.58 157.29-15.81 159.09-17.04 161.79-17.71 164.49-18.38 168.08-18.38L168.08-18.38Q170.74-18.38 173.68-17.99 176.62-17.6 179.75-16.8L179.75-16.8Q179.63-18.16 178.92-19.32 178.21-20.48 176.95-21.33 175.7-22.17 173.93-22.63 172.16-23.1 169.91-23.1L169.91-23.1Q168.69-23.1 167.22-22.95 165.76-22.8 164.2-22.51 162.63-22.22 161.11-21.78 159.58-21.34 158.26-20.73L158.26-20.73 156.07-26.66Q157.7-27.25 159.57-27.73 161.44-28.22 163.39-28.58 165.34-28.93 167.3-29.13 169.25-29.32 171.08-29.32L171.08-29.32Q179.16-29.32 183.09-25.2 187.02-21.07 187.02-12.55L187.02-12.55 187.02 0 179.8 0 179.8-2.71Q178.67-2.05 177.34-1.46 176.01-0.88 174.45-0.44 172.89 0 171.09 0.26 169.3 0.51 167.3 0.51L167.3 0.51Q163.93 0.51 161.38-0.22 158.83-0.95 157.12-2.25 155.41-3.54 154.54-5.29 153.67-7.03 153.67-9.08ZM161.29-9.33L161.29-9.33Q161.29-8.62 161.66-7.97 162.02-7.32 162.83-6.82 163.63-6.32 164.89-6.02 166.15-5.71 167.93-5.71L167.93-5.71Q169.84-5.71 171.62-6.05 173.4-6.4 174.94-6.96 176.48-7.52 177.72-8.25 178.97-8.98 179.8-9.77L179.8-9.77 179.8-11.04Q178.14-11.5 176.51-11.82 174.89-12.13 173.41-12.32 171.94-12.5 170.63-12.57 169.32-12.65 168.35-12.65L168.35-12.65Q166.32-12.65 164.98-12.38 163.63-12.11 162.8-11.66 161.97-11.21 161.63-10.6 161.29-9.99 161.29-9.33ZM194.83-14.33L194.83-14.33Q194.83-17.5 195.99-20.25 197.15-23 199.39-25.01 201.62-27.03 204.86-28.17 208.09-29.32 212.24-29.32L212.24-29.32Q214.05-29.32 215.88-29.1 217.71-28.88 219.41-28.48 221.1-28.08 222.59-27.53 224.08-26.98 225.18-26.32L225.18-26.32 221.84-20.87Q219.47-21.97 217.36-22.49 215.24-23 213.07-23L213.07-23Q210.58-23 208.6-22.35 206.63-21.7 205.25-20.54 203.87-19.38 203.15-17.81 202.43-16.24 202.43-14.38L202.43-14.38Q202.43-12.52 203.2-10.95 203.96-9.38 205.37-8.24 206.77-7.1 208.76-6.46 210.75-5.81 213.19-5.81L213.19-5.81Q215.88-5.81 218.26-6.57 220.64-7.32 222.69-8.59L222.69-8.59 226.03-3.15Q224.74-2.37 223.23-1.7 221.71-1.03 219.99-0.54 218.27-0.05 216.38 0.23 214.49 0.51 212.46 0.51L212.46 0.51Q208.33 0.51 205.06-0.61 201.79-1.73 199.52-3.72 197.25-5.71 196.04-8.42 194.83-11.13 194.83-14.33ZM238.17 0L238.17-23.39 231.21-23.39 231.21-28.81 238.17-28.81 238.17-37.77 245.39-37.77 245.39-28.81 252.35-28.81 252.35-23.39 245.39-23.39 245.39 0 238.17 0ZM262.58-32.74L262.58-32.74Q261.5-32.74 260.64-33.04 259.77-33.35 259.16-33.87 258.55-34.4 258.22-35.1 257.89-35.79 257.89-36.57L257.89-36.57Q257.89-37.38 258.22-38.07 258.55-38.77 259.16-39.28 259.77-39.79 260.64-40.1 261.5-40.41 262.58-40.41L262.58-40.41Q263.68-40.41 264.54-40.1 265.41-39.79 266.02-39.28 266.63-38.77 266.96-38.07 267.29-37.38 267.29-36.57L267.29-36.57Q267.29-35.79 266.96-35.1 266.63-34.4 266.02-33.87 265.41-33.35 264.54-33.04 263.68-32.74 262.58-32.74ZM258.96 0L258.96-28.81 266.19-28.81 266.19 0 258.96 0ZM285.11 0L271.46-28.83 279.84-28.83 287.33-11.5 289.28-6.64 291.24-11.5 298.73-28.83 307.11-28.83 293.46 0 285.11 0ZM310.79-14.5L310.79-14.5Q310.79-17.43 311.99-20.1 313.18-22.78 315.43-24.83 317.68-26.88 320.93-28.1 324.19-29.32 328.34-29.32L328.34-29.32Q332.47-29.32 335.78-28.09 339.09-26.86 341.39-24.71 343.7-22.56 344.93-19.65 346.17-16.75 346.17-13.43L346.17-13.43Q346.17-13.01 346.15-12.54 346.14-12.06 346.09-11.67L346.09-11.67 318.85-11.67Q319.31-10.38 320.35-9.3 321.39-8.23 322.95-7.45 324.51-6.67 326.56-6.24 328.61-5.81 331.1-5.81L331.1-5.81Q333.59-5.81 336.06-6.34 338.52-6.86 340.77-7.67L340.77-7.67 343.21-2.15Q341.8-1.49 340.34-0.99 338.89-0.49 337.32-0.16 335.74 0.17 334.02 0.34 332.3 0.51 330.39 0.51L330.39 0.51Q325.54 0.51 321.87-0.66 318.21-1.83 315.75-3.86 313.28-5.88 312.04-8.62 310.79-11.35 310.79-14.5ZM318.85-17.31L338.5-17.31Q338.11-18.51 337.29-19.54 336.47-20.58 335.25-21.35 334.03-22.12 332.42-22.56 330.81-23 328.88-23L328.88-23Q326.83-23 325.15-22.53 323.46-22.07 322.19-21.29 320.92-20.51 320.08-19.48 319.24-18.46 318.85-17.31L318.85-17.31ZM380.19 0L366.55-28.83 374.92-28.83 382.42-11.5 384.37-6.64 386.32-11.5 393.82-28.83 402.19-28.83 388.54 0 380.19 0ZM411.05-32.74L411.05-32.74Q409.98-32.74 409.11-33.04 408.24-33.35 407.63-33.87 407.02-34.4 406.69-35.1 406.36-35.79 406.36-36.57L406.36-36.57Q406.36-37.38 406.69-38.07 407.02-38.77 407.63-39.28 408.24-39.79 409.11-40.1 409.98-40.41 411.05-40.41L411.05-40.41Q412.15-40.41 413.02-40.1 413.88-39.79 414.49-39.28 415.1-38.77 415.43-38.07 415.76-37.38 415.76-36.57L415.76-36.57Q415.76-35.79 415.43-35.1 415.1-34.4 414.49-33.87 413.88-33.35 413.02-33.04 412.15-32.74 411.05-32.74ZM407.44 0L407.44-28.81 414.66-28.81 414.66 0 407.44 0ZM421.69-14.28L421.69-14.28Q421.69-17.72 422.99-20.5 424.28-23.27 426.56-25.23 428.85-27.2 431.98-28.26 435.12-29.32 438.78-29.32L438.78-29.32Q440.35-29.32 441.87-29.13 443.4-28.93 444.8-28.59 446.21-28.25 447.44-27.77 448.67-27.29 449.62-26.73L449.62-26.73 449.62-40.5 456.85-40.5 456.85 0 449.62 0 449.62-2.71Q448.67-2.05 447.38-1.46 446.08-0.88 444.59-0.44 443.1 0 441.51 0.26 439.91 0.51 438.34 0.51L438.34 0.51Q434.68 0.51 431.62-0.56 428.55-1.64 426.36-3.59 424.16-5.54 422.93-8.26 421.69-10.99 421.69-14.28ZM429.29-14.28L429.29-14.28Q429.29-12.55 429.98-11.01 430.68-9.47 431.98-8.31 433.29-7.15 435.13-6.48 436.98-5.81 439.27-5.81L439.27-5.81Q440.74-5.81 442.2-6.09 443.67-6.37 445.02-6.88 446.38-7.4 447.56-8.13 448.74-8.86 449.62-9.77L449.62-9.77 449.62-19.75Q448.52-20.63 447.3-21.24 446.08-21.85 444.81-22.24 443.54-22.63 442.25-22.81 440.96-23 439.74-23L439.74-23Q437.25-23 435.3-22.33 433.36-21.66 432.03-20.48 430.7-19.31 429.99-17.72 429.29-16.14 429.29-14.28ZM464.32-14.5L464.32-14.5Q464.32-17.43 465.51-20.1 466.71-22.78 468.96-24.83 471.2-26.88 474.46-28.1 477.72-29.32 481.87-29.32L481.87-29.32Q486-29.32 489.31-28.09 492.61-26.86 494.92-24.71 497.23-22.56 498.46-19.65 499.69-16.75 499.69-13.43L499.69-13.43Q499.69-13.01 499.68-12.54 499.67-12.06 499.62-11.67L499.62-11.67 472.37-11.67Q472.84-10.38 473.88-9.3 474.91-8.23 476.48-7.45 478.04-6.67 480.09-6.24 482.14-5.81 484.63-5.81L484.63-5.81Q487.12-5.81 489.59-6.34 492.05-6.86 494.3-7.67L494.3-7.67 496.74-2.15Q495.32-1.49 493.87-0.99 492.42-0.49 490.84-0.16 489.27 0.17 487.55 0.34 485.83 0.51 483.92 0.51L483.92 0.51Q479.06 0.51 475.4-0.66 471.74-1.83 469.27-3.86 466.81-5.88 465.56-8.62 464.32-11.35 464.32-14.5ZM472.37-17.31L492.03-17.31Q491.64-18.51 490.82-19.54 490-20.58 488.78-21.35 487.56-22.12 485.95-22.56 484.34-23 482.41-23L482.41-23Q480.36-23 478.67-22.53 476.99-22.07 475.72-21.29 474.45-20.51 473.61-19.48 472.77-18.46 472.37-17.31L472.37-17.31ZM505.72-14.4L505.72-14.4Q505.72-17.5 506.98-20.21 508.24-22.92 510.57-24.95 512.9-26.98 516.21-28.15 519.52-29.32 523.64-29.32L523.64-29.32Q527.77-29.32 531.08-28.15 534.38-26.98 536.72-24.95 539.05-22.92 540.3-20.21 541.56-17.5 541.56-14.4L541.56-14.4Q541.56-11.3 540.3-8.59 539.05-5.88 536.72-3.86 534.38-1.83 531.08-0.66 527.77 0.51 523.64 0.51L523.64 0.51Q519.52 0.51 516.21-0.66 512.9-1.83 510.57-3.86 508.24-5.88 506.98-8.59 505.72-11.3 505.72-14.4ZM513.31-14.4L513.31-14.4Q513.31-12.67 514.01-11.12 514.71-9.57 516.04-8.39 517.37-7.2 519.28-6.51 521.2-5.81 523.64-5.81L523.64-5.81Q526.08-5.81 528-6.51 529.92-7.2 531.25-8.39 532.58-9.57 533.27-11.12 533.97-12.67 533.97-14.4L533.97-14.4Q533.97-16.14 533.27-17.7 532.58-19.26 531.25-20.45 529.92-21.63 528-22.33 526.08-23.02 523.64-23.02L523.64-23.02Q521.2-23.02 519.28-22.33 517.37-21.63 516.04-20.45 514.71-19.26 514.01-17.7 513.31-16.14 513.31-14.4Z" opacity="1" transform="matrix(1,0,0,1,0,0)" fill="#ffffff" class="undefined-text-1" data-fill-palette-color="secondary" id="text-1"></path></svg></g></svg></g></svg></g></svg></g><g><svg viewBox="0 0 227.7527529464093 227.7527529464093" height="227.7527529464093" width="227.7527529464093"><g><svg></svg></g><g id="icon-0"><svg viewBox="0 0 227.7527529464093 227.7527529464093" height="227.7527529464093" width="227.7527529464093"><g><path d="M0 113.876c0-62.892 50.984-113.876 113.876-113.876 62.892 0 113.876 50.984 113.877 113.876 0 62.892-50.984 113.876-113.877 113.877-62.892 0-113.876-50.984-113.876-113.877zM113.876 221.365c59.364 0 107.488-48.124 107.489-107.489 0-59.364-48.124-107.488-107.489-107.488-59.364 0-107.488 48.124-107.488 107.488 0 59.364 48.124 107.488 107.488 107.489z" data-fill-palette-color="tertiary" fill="#ffffff" stroke="transparent"></path></g><g transform="matrix(1,0,0,1,47.58970005301468,48.40303350602315)"><svg viewBox="0 0 132.57335284037993 130.946685934363" height="130.946685934363" width="132.57335284037993"><g><svg xmlns="http://www.w3.org/2000/svg" xmlns:xlink="http://www.w3.org/1999/xlink" version="1.1" x="0" y="0" viewBox="1.1 1.7 97.8 96.6" style="enable-background:new 0 0 100 100;" xml:space="preserve" height="130.946685934363" width="132.57335284037993" class="icon-fi-0" data-fill-palette-color="accent" id="fi-0"><rect x="47.4" y="1.7" width="5.1" height="5.1" fill="#ffffff" data-fill-palette-color="accent"></rect><rect x="47.4" y="93.2" width="5.1" height="5.1" fill="#ffffff" data-fill-palette-color="accent"></rect><rect x="13.9" y="78.5" width="5.1" height="5.1" fill="#ffffff" data-fill-palette-color="accent"></rect><rect x="79.5" y="78.5" width="5.1" height="5.1" fill="#ffffff" data-fill-palette-color="accent"></rect><rect x="13.9" y="15.7" width="5.1" height="5.1" fill="#ffffff" data-fill-palette-color="accent"></rect><rect x="79.5" y="15.7" width="5.1" height="5.1" fill="#ffffff" data-fill-palette-color="accent"></rect><rect x="1.1" y="47" width="5.1" height="5.1" fill="#ffffff" data-fill-palette-color="accent"></rect><rect x="93.8" y="47" width="5.1" height="5.1" fill="#ffffff" data-fill-palette-color="accent"></rect><path d="M10.4 24.3c-3.8 5.8-6.2 12.2-7.1 19.1L3.2 44h3l0.1-0.5c1-6.7 3.5-13.1 7.3-18.7l0.6-0.8h-3.5L10.4 24.3z" fill="#ffffff" data-fill-palette-color="accent"></path><path d="M6.1 55.6L6 55.1H3.1l0.1 0.6c0.9 7.1 3.2 13.6 7 19.6l0.2 0.2h3.5l-0.6-0.8C9.5 69 7 62.4 6.1 55.6z" fill="#ffffff" data-fill-palette-color="accent"></path><path d="M93.7 43.6l0.1 0.5h3l-0.1-0.6c-1-6.9-3.4-13.3-7.1-19.1l-0.2-0.2h-3.5l0.6 0.8C90.2 30.5 92.7 36.9 93.7 43.6z" fill="#ffffff" data-fill-palette-color="accent"></path><path d="M93.9 55.1l-0.1 0.5c-0.9 6.8-3.4 13.5-7.2 19.1L86 75.6h3.5l0.2-0.2c3.8-5.9 6.2-12.5 7-19.6l0.1-0.6L93.9 55.1 93.9 55.1z" fill="#ffffff" data-fill-palette-color="accent"></path><path d="M74.1 13l0.1 0.1h5l-1.3-1C71.6 7.3 64 4.2 56.1 3.2l-0.6-0.1v3L56 6.2C62.5 7.1 68.6 9.3 74.1 13z" fill="#ffffff" data-fill-palette-color="accent"></path><path d="M21.9 12.1l-1.3 1h5l0.1-0.1C31.3 9.3 37.4 7.1 44 6.2l0.5-0.1v-3l-0.6 0.1C35.9 4.2 28.3 7.3 21.9 12.1z" fill="#ffffff" data-fill-palette-color="accent"></path><path d="M74.6 86.8c-5.6 3.7-12 6.2-18.7 7.1l-0.5 0.1v3l0.6-0.1c8.1-1.1 15.8-4.2 22.3-9.2l1.3-1L74.6 86.8 74.6 86.8z" fill="#ffffff" data-fill-palette-color="accent"></path><path d="M25.3 86.8l-0.2-0.1h-4.9l1.3 1c6.5 5 14.3 8.1 22.4 9.2l0.6 0.1v-3L44 93.8C37.3 92.9 30.8 90.4 25.3 86.8z" fill="#ffffff" data-fill-palette-color="accent"></path><path d="M35.4 28.8l-3.6-5.7c-0.4-0.6-1.1-0.7-1.7-0.4-0.6 0.4-0.7 1.1-0.4 1.7l3.6 5.7c0.2 0.4 0.6 0.6 1 0.6 0.2 0 0.5-0.1 0.7-0.2C35.6 30.2 35.8 29.4 35.4 28.8z" fill="#ffffff" data-fill-palette-color="accent"></path><path d="M30.9 40.6l-5.7 3.6c-0.6 0.4-0.7 1.1-0.4 1.7 0.2 0.4 0.6 0.6 1 0.6 0.2 0 0.5-0.1 0.7-0.2l5.7-3.6c0.6-0.4 0.7-1.1 0.4-1.7C32.2 40.4 31.5 40.2 30.9 40.6z" fill="#ffffff" data-fill-palette-color="accent"></path><path d="M46.6 33.3c0.2 0 0.5-0.1 0.7-0.2l5.7-3.6c0.6-0.4 0.7-1.1 0.4-1.7-0.4-0.6-1.1-0.7-1.7-0.4L46 31c-0.6 0.4-0.7 1.1-0.4 1.7C45.8 33.1 46.2 33.3 46.6 33.3z" fill="#ffffff" data-fill-palette-color="accent"></path><path d="M40.4 29.5c0.1 0 0.2 0 0.3 0 0.6 0 1.1-0.4 1.2-1l1.5-6.6c0.1-0.7-0.3-1.3-0.9-1.5-0.7-0.1-1.3 0.3-1.5 0.9L39.5 28C39.3 28.7 39.8 29.4 40.4 29.5z" fill="#ffffff" data-fill-palette-color="accent"></path><path d="M30.5 36c0.6 0 1.1-0.4 1.2-1 0.1-0.7-0.3-1.3-0.9-1.5l-6.6-1.5c-0.7-0.1-1.3 0.3-1.5 0.9-0.1 0.7 0.3 1.3 0.9 1.5l6.6 1.5C30.3 36 30.4 36 30.5 36z" fill="#ffffff" data-fill-palette-color="accent"></path><path d="M77.1 70.7C77 69.9 77 68.6 77 67.1c0-4.8 0.1-12.1-5.5-20.8 0 0 0 0 0 0l-3.4-5.3c-0.6-0.9-1.5-1.6-2.6-1.8-1.1-0.2-2.2 0-3.1 0.5 0 0 0 0-0.1 0-0.5 0.4-1 0.8-1.3 1.4-0.5-0.4-1-0.6-1.6-0.8-1.1-0.2-2.2 0-3.2 0.6 0 0-0.1 0.1-0.1 0.1-0.7 0.5-1.2 1.1-1.5 1.9-1.2-0.5-2.6-0.5-3.8 0.2-0.1 0-0.1 0-0.2 0.1-0.5 0.3-0.9 0.8-1.3 1.3L44 36c-0.7-1-1.7-1.7-2.8-2-1.2-0.3-2.4 0-3.4 0.6 0 0 0 0 0 0 0 0 0 0-0.1 0-1 0.7-1.7 1.7-2 2.8-0.3 1.2 0 2.4 0.6 3.4l9.1 14.2c-0.4 0.2-0.9 0.5-1.3 0.8-0.2 0.1-0.4 0.3-0.7 0.4 0 0 0 0 0 0-1.1 0.7-1.8 1.8-2.1 3C41 60.7 41.2 62 41.9 63l3.2 5c0.1 0.1 0.1 0.2 0.2 0.2 3.8 5.3 8.5 6.7 11.7 7.6 0.9 0.3 1.6 0.5 2.2 0.7 0.1 0 0.2 0.1 0.3 0.1 0 0 0 0 0 0 1.5 0.3 1.9 1.1 2.7 2.4l0.3 0.5c0.2 0.4 0.6 0.6 1 0.6 0.2 0 0.5-0.1 0.7-0.2 0.6-0.4 0.8-1.1 0.4-1.7l-0.3-0.4c-0.9-1.5-1.8-3-4.3-3.5 0 0 0 0 0 0-0.7-0.3-1.5-0.5-2.3-0.8-3.2-0.9-7.6-2.2-11-7.6 0 0 0 0 0 0L44 61.7c-0.3-0.5-0.4-1.1-0.3-1.7 0.1-0.6 0.5-1.1 1-1.4 0 0 0 0 0 0 0.2-0.2 0.5-0.3 0.7-0.5 0.4-0.3 1.1-0.7 1.2-0.7 0 0 0.1 0.1 0.2 0.3l3.7 5.8c0.2 0.4 0.6 0.6 1 0.6 0.2 0 0.5-0.1 0.7-0.2 0.6-0.4 0.7-1.1 0.4-1.7l-3.7-5.8 0 0c0 0 0 0 0 0L38.4 39.6c-0.3-0.5-0.4-1-0.3-1.6 0.1-0.5 0.4-1 0.9-1.3 0 0 0 0 0 0 0 0 0 0 0.1 0 0.5-0.3 1-0.4 1.6-0.3 0.5 0.1 1 0.4 1.3 0.9l7.5 11.7 0 0 0 0 3.5 5.5c0.2 0.4 0.6 0.6 1 0.6 0.2 0 0.5-0.1 0.7-0.2 0.6-0.4 0.7-1.1 0.4-1.7l-3.5-5.5C51 47 51.2 45.9 52 45.4l0 0c0.8-0.5 1.9-0.3 2.4 0.5l3.5 5.5c0.2 0.4 0.6 0.6 1 0.6 0.2 0 0.5-0.1 0.7-0.2 0.6-0.4 0.7-1.1 0.4-1.7l-2.9-4.6c0 0 0 0 0 0-0.3-0.4-0.3-0.9-0.2-1.3 0.1-0.5 0.4-0.8 0.8-1.1 0 0 0 0 0 0 0.4-0.3 0.9-0.3 1.3-0.2 0.5 0.1 0.8 0.4 1.1 0.8l1.2 1.8c0 0 0 0 0 0 0 0 0 0 0 0l2.3 3.7c0.2 0.4 0.6 0.6 1 0.6 0.2 0 0.5-0.1 0.7-0.2 0.6-0.4 0.7-1.1 0.4-1.7l-2.3-3.7 0 0c-0.2-0.4-0.3-0.8-0.2-1.2 0.1-0.4 0.3-0.8 0.7-1l0 0c0.4-0.2 0.8-0.3 1.2-0.2 0.4 0.1 0.8 0.3 1 0.7l3.4 5.3c5.2 8.1 5.1 14.9 5.1 19.4 0 1.7 0 3.1 0.3 4.2 0.1 0.6 0.6 0.9 1.2 0.9 0.1 0 0.2 0 0.3 0C76.9 72 77.3 71.3 77.1 70.7z" fill="#ffffff" data-fill-palette-color="accent"></path></svg></g></svg></g></svg></g></svg></g></svg></g></svg></g></svg><rect width="395.52" height="137.16802206001074" fill="none" stroke="none" visibility="hidden"></rect></g></svg></g></svg>